# xmcd
# Copyright (c) 1998 CDDB Inc.
#
# Track frame offsets:
#	151
#	16348
#	48236
#	58733
#	83209
#	104366
#
# Disc length: 1610 seconds
#
# Revision: 0
# Processed by: cddbd v1.4PL0 Copyright (c) Steve Scherf et al.
# Submitted via: audiograbber 1.70
#
DISCID=44064806
DTITLE=The Worried Men - Lady Don't Fall Backwards
DYEAR=1900
DGENRE=
TTITLE0=walking the dog
TTITLE1=let there be buggetts
TTITLE2=the things that i used to do
TTITLE3=wiped out
TTITLE4=lycanthropy
TTITLE5=rock me baby
EXTD=
EXTT0=
EXTT1=
EXTT2=
EXTT3=
EXTT4=
EXTT5=
PLAYORDER=
